<svg width="4" height="752" viewBox="0 0 4 752" fill="none" xmlns="http://www.w3.org/2000/svg">
<path d="M1.26051 1C1.26051 10.0173 2.05043 19.0189 2.05043 28.062C2.05043 38.6707 2.00005 48.8423 2.00005 59.4826C2.00005 65.0028 1.77253 70.298 2.35435 74.9952C2.34687 83.5601 2.84312 90.8253 1.95659 98.8185C0.489304 121.064 1.50942 143.198 1.26051 165.458C1.06012 183.378 1.36555 201.314 1.36555 219.253C1.36555 240.304 1.36555 261.355 1.36555 282.407C1.36554 292.185 2.05042 301.923 2.05041 311.719C2.05041 320.063 2.84033 327.768 2.84033 336.143C2.84033 348.441 1.47972 360.794 2.37043 373.086C2.88031 380.123 1.42015 387.233 1.42015 394.275C1.42015 402.168 2.21007 410.008 2.21007 417.906C2.21007 427.532 1.99998 437.104 2.99998 446.724C2.99998 457.557 2.99998 468.389 2.99998 479.221C2.99998 497.172 2.89493 515.153 2.89493 533.125C2.89493 569.997 2.68484 606.811 2.68484 643.679C2.68484 666.077 2.5798 688.544 2.5798 710.977C2.5798 723.895 1.68484 738.245 1.68484 751" stroke="#B7EC5D" stroke-width="2" stroke-linecap="round"/>
</svg>
